<svg width="35" height="35" viewBox="0 0 35 35" fill="none" xmlns="http://www.w3.org/2000/svg">
<path d="M17.5 13.125C18.8591 13.125 19.9609 12.0232 19.9609 10.6641C19.9609 9.30492 18.8591 8.20312 17.5 8.20312C16.1409 8.20312 15.0391 9.30492 15.0391 10.6641C15.0391 12.0232 16.1409 13.125 17.5 13.125Z" fill="white"/>
<path d="M27.3438 1.09375V4.92187H7.65625V1.09375H1.09375V10.9375H7.65625V7.10937H9.38424L9.89857 13.2815L15.3126 15.9885V22.9687H9.90281L9.39606 32.0897H11.5869L11.9722 25.1562H23.0278L23.4131 32.0897H25.604L25.0972 22.9687H19.6875V15.9885L25.1016 13.2815L25.6158 7.10937H27.3438V10.9375H33.9062V1.09375H27.3438ZM5.46875 4.92187V8.75H3.28125V3.28125H5.46875V4.92187ZM23.0234 11.8747L17.5 14.6364L11.9766 11.8747L11.5793 7.10937H23.4207L23.0234 11.8747ZM31.7188 8.75H29.5312V3.28125H31.7188V8.75Z" fill="white"/>
</svg>
