<svg width="31" height="31" viewBox="0 0 31 31" fill="none" xmlns="http://www.w3.org/2000/svg">
<path d="M30.3511 15.2607L17.1441 2.06051L16.2588 1.17526C16.0571 0.974884 15.7843 0.862427 15.5 0.862427C15.2157 0.862427 14.9429 0.974884 14.7412 1.17526L0.648945 15.2607C0.442265 15.4666 0.278921 15.7118 0.168557 15.9818C0.058193 16.2519 0.00304473 16.5413 0.00636726 16.833C0.0200391 18.0361 1.0215 18.9965 2.22463 18.9965H3.67727V30.1289H27.3228V18.9965H28.8062C29.3906 18.9965 29.9409 18.7675 30.3545 18.354C30.5582 18.151 30.7195 17.9096 30.8292 17.6438C30.9389 17.3781 30.9948 17.0932 30.9937 16.8056C30.9937 16.2246 30.7647 15.6743 30.3511 15.2607V15.2607ZM17.4141 27.6679H13.586V20.6953H17.4141V27.6679ZM24.8618 16.5356V27.6679H19.6016V19.875C19.6016 19.1196 18.9898 18.5078 18.2344 18.5078H12.7656C12.0103 18.5078 11.3985 19.1196 11.3985 19.875V27.6679H6.1382V16.5356H2.85695L15.5034 3.89938L16.293 4.68893L28.1465 16.5356H24.8618Z" fill="white"/>
</svg>
