<svg width="50" height="50" viewBox="0 0 50 50" fill="none" xmlns="http://www.w3.org/2000/svg">
<path d="M46.875 26.5625H43.2285C42.7087 27.6448 42.1131 28.689 41.4463 29.6875H46.875V26.5625Z" fill="white"/>
<path d="M3.125 23.4375V26.5625H6.77148C6.2889 25.5532 5.88408 24.5085 5.56055 23.4375H3.125Z" fill="white"/>
<path d="M29.6875 25.3691L24.6357 35.4726L19.9482 19.8477L16.5908 26.5625H6.77148C7.74805 28.6055 9.06641 30.6064 10.7393 32.5859C14.6572 37.2207 19.9434 40.374 24.1182 43.164L24.9971 43.75L25.876 43.164C30.0537 40.374 35.3398 37.2207 39.2549 32.5859C40.0405 31.6627 40.7722 30.695 41.4463 29.6875H31.8467L29.6875 25.3691Z" fill="white"/>
<path d="M20.6767 11.4023L25.3642 27.0273L29.6875 18.3809L33.7783 26.5625H43.2285C44.6349 23.6619 45.3483 20.4743 45.3125 17.251C45.251 11.1855 40.3847 6.25 34.4648 6.25C29.7666 6.25 26.6426 8.98437 25 10.958C23.3574 8.98437 20.2334 6.25 15.5351 6.25C9.61521 6.25 4.749 11.1855 4.68748 17.251C4.6627 19.3455 4.95709 21.4316 5.56053 23.4375H14.6592L20.6767 11.4023Z" fill="white"/>
</svg>
