<svg width="60" height="60" viewBox="0 0 60 60" fill="none" xmlns="http://www.w3.org/2000/svg">
<path d="M59.88 43.061C59.807 42.262 59.7369 41.509 59.7879 40.94C60.2389 35.913 58.7739 31.381 55.5519 27.837C51.8969 23.816 46.1349 21.415 40.1399 21.415C31.792 21.415 24.795 25.789 21.422 33.116C21.414 33.135 21.404 33.154 21.397 33.173C20.622 30.32 19.84 28.34 19.214 26.753C18.156 24.069 17.588 22.63 18.043 19.474C18.8687 19.3842 19.6431 19.0291 20.25 18.462C20.355 18.469 20.464 18.474 20.574 18.474C21.709 18.474 22.693 18.044 23.404 17.278L23.492 17.279C24.905 17.279 26.108 16.668 26.909 15.59C28.863 15.426 30.213 14.248 30.48 12.433C30.84 9.997 29.988 3.179 28.147 1.033C27.417 0.18 26.611 0 26.065 0C22.95 0 18.078 0.719 13.942 1.788C6.40395 3.736 5.22595 5.703 5.03895 7.2C4.27395 13.377 3.13995 18.887 2.13795 23.749C0.717952 30.637 -0.403048 36.078 0.138952 40.356C0.349952 42.025 0.770952 43.457 1.17695 44.84C1.68495 46.566 2.20795 48.351 2.38495 50.792C2.62795 54.185 6.29195 56.131 12.438 56.131C14.847 56.131 17.304 55.817 19.32 55.258C21.792 56.442 29.9489 60 38.6609 60C41.6569 60 44.4479 59.572 46.9599 58.728C59.8129 54.402 60.39 48.616 59.88 43.061ZM2.12395 40.103C1.25795 33.27 5.19095 22.255 7.02495 7.449C7.33595 4.944 18.738 2.322 25.01 2.039C24.755 2.244 24.572 2.513 24.548 2.799C25.3 2.458 26.423 2.348 26.974 3.472C27.003 3.284 27.015 3.117 27.015 2.961C27.303 3.525 27.566 4.294 27.788 5.17C28.067 6.43 28.223 7.722 28.226 9.019C28.228 9.92 28.424 13.132 26.941 12.714C26.027 12.456 26.004 11.613 25.743 10.745C25.341 9.388 24.633 7.824 24.719 6.382C24.37 7.797 24.785 9.495 24.939 10.926C25.027 11.759 25.603 14.01 24.583 14.317C24.019 14.49 23.365 14.093 22.898 13.802C22.72 13.69 22.587 12.871 22.522 12.641C22.12 11.235 21.4 9.618 21.492 8.141C21.14 9.473 21.483 11.078 21.595 12.443C21.664 13.289 22.091 15.123 21.137 15.549C20.057 16.114 19.891 14.744 19.691 14.026C19.32 12.693 18.717 11.235 18.733 9.837C18.356 11.54 18.799 13.534 18.872 15.278C18.911 16.144 17.096 16.926 16.419 16.382C15.358 15.529 15.179 13.532 15.059 12.241C15.377 12.675 15.833 13.236 16.412 13.179C15.92 12.618 15.711 11.656 15.382 10.974C15.08 10.414 14.467 9.081 13.746 9.059C13.857 9.298 14.465 10.945 14.371 11.119C14.078 11.664 13.793 12.218 13.467 12.74C13.19 13.179 12.386 14.578 11.737 14.155C11.036 13.701 10.596 11.668 10.596 11.668C10.596 11.668 10.622 14.203 11.528 14.79C12.386 15.348 13.364 14.468 13.932 13.84C14.045 15.045 14.371 16.458 15.1 17.39C12.958 26.889 16.901 26.794 19.559 39.492C19.559 39.492 21.311 36.909 22.843 33.582C26.186 26.32 33.159 23.084 39.881 23.084C46.547 23.084 53.6849 26.492 56.2789 32.384C57.1359 34.33 57.349 36.656 57.117 39.218C56.738 43.391 60.8559 50.18 45.4949 55.281C33.3059 59.328 18.314 51.568 18.314 51.568C14.202 52.912 4.58595 53.499 4.38295 50.651C4.04795 45.986 2.56695 43.611 2.12395 40.103" fill="white"/>
</svg>
